# xmcd
#
# Track frame offsets:
#	150
#	15244
#	34374
#	47707
#	60785
#	71769
#	84230
#	98138
#	112659
#	126018
#	138846
#	157118
#	173902
#	187575
#
# Disc length: 2678 seconds
#
# Revision: 1
# Processed by: cddbd v1.5.2PL0 Copyright (c) Steve Scherf et al.
# Submitted via: audiograbber 1.83.01
#
DISCID=a20a740e
DTITLE=Margo O'Donnell - Ireland's Where I Call Home
DYEAR=2010
DGENRE=
TTITLE0=A Trip Through Ireland
TTITLE1=A New Tomorrow
TTITLE2=Tower Of Sweet Rathlee
TTITLE3=Will Your Lawyer Talk To God
TTITLE4=Ireland's Where I Call Home
TTITLE5=Roses In The Snow
TTITLE6=Lonely Nights In London
TTITLE7=The Emigrant
TTITLE8=All I Have For You Mum
TTITLE9=I Still Miss Someone
TTITLE10=Memories Of Life In Donegal
TTITLE11=I'll Meet You In Church Sunday Morning
TTITLE12=Someday You'll Call My Name
TTITLE13=Near The Village Of Dromore
EXTD=
EXTT0=
EXTT1=
EXTT2=
EXTT3=
EXTT4=
EXTT5=
EXTT6=
EXTT7=
EXTT8=
EXTT9=
EXTT10=
EXTT11=
EXTT12=
EXTT13=
PLAYORDER=
